<?xml version="1.0" encoding="utf-8"?>
<!-- Generator: Adobe Illustrator 26.0.2, SVG Export Plug-In . SVG Version: 6.00 Build 0)  -->
<svg version="1.1" id="Layer_1_xA0_Image_00000076596141054219779220000009541603587808870317_"
	 xmlns="http://www.w3.org/2000/svg" xmlns:xlink="http://www.w3.org/1999/xlink" x="0px" y="0px" width="231.687px"
	 height="1369.8184px" viewBox="0 0 231.687 1369.8184" style="enable-background:new 0 0 231.687 1369.8184;" xml:space="preserve"
	>
<style type="text/css">
	.st0{fill:#00DBD3;}
</style>
<g>
	<g>
		<path class="st0" d="M82.2388,376.4187v-8.6973c0-2.4482-1.0312-3.479-3.4785-3.479h-5.9922v15.6548h5.9922
			C81.2075,379.8972,82.2388,378.9309,82.2388,376.4187z M160.4693,585.8699c2.4482,0,3.4785-0.9658,3.4785-3.4785v-9.083
			c0-2.4482-1.0303-3.4795-3.4785-3.4795h-17.3936c-2.4482,0-3.4795,1.0312-3.4795,3.4795v9.083
			c0,2.5127,1.0312,3.4785,3.4795,3.4785H160.4693z M61.1089,288.6184h17.3936c2.4473,0,3.4785-0.9663,3.4785-3.479v-9.0835
			c0-2.4482-1.0312-3.479-3.4785-3.479H61.1089c-2.4482,0-3.4795,1.0308-3.4795,3.479v9.0835
			C57.6294,287.6521,58.6607,288.6184,61.1089,288.6184z M82.2388,894.0715v-8.6963c0-2.4482-1.0303-3.4795-3.4785-3.4795h-5.9912
			v15.6553h5.9912C81.2085,897.551,82.2388,896.5842,82.2388,894.0715z M139.9829,546.3826c0,2.5771,0.9668,3.5439,3.5439,3.5439
			h7.665c2.5771,0,3.543-0.9668,3.543-3.5439v-16.041h-14.752V546.3826z M164.2056,887.3411v-8.6963
			c0-2.4482-1.0303-3.4795-3.4785-3.4795h-5.9912v15.6553h5.9912C163.1753,890.8206,164.2056,889.8538,164.2056,887.3411z
			 M69.5474,430.0779l-1.6104-12.1763c-0.3867-2.7056-1.1592-3.7363-5.2822-3.7363c-4.1875,0-5.4111,0.9663-5.4111,4.6387
			c0,5.2178,1.417,7.8594,3.7363,11.2739H69.5474z M78.6314,1060.845H62.0747c-2.5117,0-3.4785,1.0312-3.4785,4.9609
			c0,5.54,1.2236,8.1816,3.4785,11.5957h16.5566c2.3193-3.4141,3.4785-6.0557,3.4785-11.5957
			C82.1099,1061.8762,81.1441,1060.845,78.6314,1060.845z M160.2114,545.8679c0,2.5762,0.9668,3.543,3.4785,3.543h6.6357
			c2.5771,0,3.5439-0.9668,3.5439-3.543v-15.5264h-13.6582V545.8679z M143.0757,291.3567h17.3936
			c2.4473,0,3.4785-0.9663,3.4785-3.479v-9.0835c0-2.4482-1.0312-3.479-3.4785-3.479h-17.3936c-2.4482,0-3.4795,1.0308-3.4795,3.479
			v9.0835C139.5962,290.3904,140.6275,291.3567,143.0757,291.3567z M82.2388,487.0862v-8.6973c0-2.4482-1.0312-3.479-3.4785-3.479
			h-5.9922v15.6548h5.9922C81.2075,490.5647,82.2388,489.5984,82.2388,487.0862z M151.5142,432.8162l-1.6104-12.1763
			c-0.3867-2.7056-1.1592-3.7363-5.2822-3.7363c-4.1875,0-5.4111,0.9663-5.4111,4.6387c0,5.2178,1.417,7.8594,3.7363,11.2739
			H151.5142z M81.7232,546.6726h6.6357c2.5771,0,3.5439-0.9668,3.5439-3.543v-15.5264H78.2446v15.5264
			C78.2446,545.7058,79.2114,546.6726,81.7232,546.6726z M61.1089,718.9231h17.3936c2.4482,0,3.4785-0.9658,3.4785-3.4785v-9.0835
			c0-2.4482-1.0303-3.4795-3.4785-3.4795H61.1089c-2.4482,0-3.4795,1.0312-3.4795,3.4795v9.0835
			C57.6294,717.9573,58.6607,718.9231,61.1089,718.9231z M164.2056,851.5901v-8.6963c0-2.4482-1.0303-3.4795-3.4785-3.4795h-5.9912
			v15.6553h5.9912C163.1753,855.0696,164.2056,854.1028,164.2056,851.5901z M61.1089,583.1316h17.3936
			c2.4482,0,3.4785-0.9658,3.4785-3.4785v-9.083c0-2.4482-1.0303-3.4795-3.4785-3.4795H61.1089
			c-2.4482,0-3.4795,1.0312-3.4795,3.4795v9.083C57.6294,582.1658,58.6607,583.1316,61.1089,583.1316z M164.2056,489.8245v-8.6973
			c0-2.4482-1.0312-3.479-3.4785-3.479h-5.9922v15.6548h5.9922C163.1743,493.303,164.2056,492.3367,164.2056,489.8245z
			 M61.5601,547.1882h7.665c2.5771,0,3.543-0.9668,3.543-3.5439v-16.041H58.0161v16.041
			C58.0161,546.2214,58.9829,547.1882,61.5601,547.1882z M164.2056,379.157v-8.6973c0-2.4482-1.0312-3.479-3.4785-3.479h-5.9922
			v15.6548h5.9922C163.1743,382.6355,164.2056,381.6692,164.2056,379.157z M164.2056,1000.2639v-8.6963
			c0-2.4482-1.0303-3.4795-3.4785-3.4795h-5.9912v15.6553h5.9912C163.1753,1003.7434,164.2056,1002.7766,164.2056,1000.2639z
			 M78.438,829.0735H61.1734c-2.7061,0-3.6719,1.0312-3.6719,4.9609c0,5.54,1.1592,8.1816,3.4785,11.5957h17.6514
			c2.3193-3.4141,3.4785-6.0557,3.4785-11.5957C82.1099,830.1047,81.1441,829.0735,78.438,829.0735z M160.4048,950.4045h-17.2646
			c-2.7061,0-3.6719,1.0312-3.6719,4.9609c0,5.54,1.1592,8.1816,3.4785,11.5957h17.6514c2.3193-3.4141,3.4785-6.0557,3.4785-11.5957
			C164.0767,951.4358,163.1109,950.4045,160.4048,950.4045z M231.2916,865.5558c0-1.4617-0.0546-2.9324-0.1309-4.4185
			l-0.0002-661.5657l-0.1299-0.2397c-0.0026-2.7295,0.0022-5.4611-0.001-8.1904c0-7.0539-2.7488-17.0325-6.8066-20.4733
			c-12.2396-10.3674-24.9442-19.8435-38.6719-29.9958L0,0l0.1313,1369.8184l215.453-158.1089l0.0214-0.1221
			c11.4055-8.6069,16.209-21.9869,16.0787-40.9967C231.0299,1068.9125,231.4226,967.2341,231.2916,865.5558z M134.3784,238.5339
			c0-6.1201,2.8994-9.019,9.0195-9.019h4.96v6.0557h-5.0244c-2.5127,0-3.4795,0.9663-3.4795,3.5435v12.4976
			c0,2.5771,0.9668,3.5435,3.4795,3.5435h5.4111c2.7695,0,3.6074-1.1597,4.252-3.8652l2.7695-12.3691
			c1.1602-5.2827,2.7705-9.2769,9.2129-9.2769h5.4756c6.1201,0,9.0186,2.8989,9.0186,9.019v12.9487
			c0,6.1206-2.8984,9.0195-9.0186,9.0195h-4.4453v-6.1201h4.5098c2.5127,0,3.4795-0.9663,3.4795-3.479v-11.7251
			c0-2.5122-0.9668-3.4785-3.4795-3.4785h-4.7021c-2.7715,0-3.6084,1.1597-4.1875,3.8008l-2.8359,12.4336
			c-1.1592,5.2183-2.7695,9.2769-9.2119,9.2769h-6.1836c-6.1201,0-9.0195-2.8989-9.0195-9.019V238.5339z M142.9468,913.3665
			c-2.4482,0-3.4785,0.9658-3.4785,3.4785v4.7676h-5.0898v-5.54c0-5.8633,2.7705-8.6328,8.6328-8.6328h21.1943v-5.1543h4.9609
			v5.2188h8.375v5.7979h-8.375v8.3105h-4.9609v-8.2461H142.9468z M134.3784,797.6731v-6.3779l34.7881-9.5996v6.1846l-28.6035,6.5713
			l28.6035,7.8594v5.6699l-28.6035,7.8594l28.6035,6.5713v5.8623l-34.7881-9.3418v-6.3135l27.5088-7.4727L134.3784,797.6731z
			 M143.8482,750.1956h1.3535v5.7344h-1.4824c-3.3496,0-4.3799,1.0303-4.3799,3.4785v8.5039c0,2.5127,1.0303,3.4785,5.0244,3.4785
			c3.6719,0,4.252-0.9014,4.6387-3.2852l1.6104-9.9209c0.9014-5.2188,2.835-7.5381,8.6973-7.5381
			c7.0869,0,9.8564,2.7705,9.8564,8.6328v8.5039c0,5.8623-2.7695,8.6328-9.084,8.6328h-1.1592v-5.7334h1.3525
			c2.8994,0,3.9297-0.9668,3.9297-3.4795v-7.2148c0-2.5127-1.0303-3.4795-4.5098-3.4795c-3.1562,0-3.7363,0.9023-4.123,3.2861
			l-1.6094,9.9209c-0.9023,5.2178-2.835,7.5371-9.2129,7.5371c-7.6016,0-10.3721-2.7695-10.3721-8.6318v-9.793
			C134.3784,752.9661,137.1489,750.1956,143.8482,750.1956z M134.3784,718.9563v-10.5659c0-5.8623,2.7705-8.6328,8.6328-8.6328
			h17.5225c5.8633,0,8.6328,2.7705,8.6328,8.6328v10.5659c0,5.8623-2.7695,8.6328-8.6328,8.6328h-17.5225
			C137.1489,727.5891,134.3784,724.8186,134.3784,718.9563z M143.0112,833.552h17.5225c5.8633,0,8.6328,2.7705,8.6328,8.6328
			v10.1143c0,5.8623-2.7695,8.6328-8.6328,8.6328H150.355v-21.5176h-7.5371c-2.4482,0-3.4785,1.0312-3.4785,3.4795v8.6963
			c0,2.4482,1.0303,3.4795,3.4785,3.4795h2.5771v5.8623h-2.3838c-5.8623,0-8.6328-2.7705-8.6328-8.6328v-10.1143
			C134.3784,836.3225,137.1489,833.552,143.0112,833.552z M143.0112,869.303h17.5225c5.8633,0,8.6328,2.7705,8.6328,8.6328V888.05
			c0,5.8623-2.7695,8.6328-8.6328,8.6328H150.355v-21.5176h-7.5371c-2.4482,0-3.4785,1.0312-3.4785,3.4795v8.6963
			c0,2.4482,1.0303,3.4795,3.4785,3.4795h2.5771v5.8623h-2.3838c-5.8623,0-8.6328-2.7705-8.6328-8.6328v-10.1143
			C134.3784,872.0735,137.1489,869.303,143.0112,869.303z M169.1665,686.0369v8.3105h-4.9609v-8.2461h-21.2588
			c-2.4482,0-3.4785,0.9658-3.4785,3.4785v4.7676h-5.0898v-5.54c0-5.8633,2.7705-8.6328,8.6328-8.6328h21.1943v-5.1543h4.9609
			v5.2188h8.375v5.7979H169.1665z M160.6626,631.9919h-26.2842v-5.8623h34.7881v5.8623h-4.832
			c3.0283,3.0273,5.1543,5.6045,5.1543,11.7891c0,7.0225-2.7695,9.792-8.6973,9.792h-26.4131v-5.9268h26.2197
			c2.5771,0,3.543-0.9014,3.543-4.4453C164.1411,638.0476,162.9819,635.406,160.6626,631.9919z M169.1665,600.5564v5.8623h-5.1543
			c2.7715,2.834,5.1543,5.54,5.1543,10.6943v2.5762h-5.6045v-3.0918c0-4.123-1.4814-7.0225-3.415-10.1787h-25.7686v-5.8623H169.1665
			z M134.3784,583.1648v-10.5654c0-5.8623,2.7705-8.6328,8.6328-8.6328h17.5225c5.8633,0,8.6328,2.7705,8.6328,8.6328v10.5654
			c0,5.8623-2.7695,8.6328-8.6328,8.6328h-17.5225C137.1489,591.7976,134.3784,589.0271,134.3784,583.1648z M170.4556,555.5955
			H164.27c-3.543,0-5.6689-1.5459-6.8281-4.1875c-1.0957,3.1562-3.3496,4.7031-6.8936,4.7031h-7.1504
			c-6.1201,0-9.0195-2.8994-9.0195-9.0195v-22.9351h45.0947v22.4194C179.4741,552.696,176.5747,555.5955,170.4556,555.5955z
			 M169.1665,464.4436v2.5771h-5.6055v-3.0923c0-4.123-1.4814-7.022-3.4141-10.1787h-25.7686v-5.8628h34.7881v5.8628h-5.1543
			C166.7827,456.5842,169.1665,459.2898,169.1665,464.4436z M143.0112,471.7859h17.5225c5.8623,0,8.6328,2.77,8.6328,8.6328v10.1143
			c0,5.8623-2.7705,8.6328-8.6328,8.6328H150.354v-21.5176h-7.5361c-2.4482,0-3.4785,1.0308-3.4785,3.479v8.6973
			c0,2.4478,1.0303,3.4785,3.4785,3.4785h2.5771v5.8628h-2.3838c-5.8623,0-8.6328-2.7705-8.6328-8.6328v-10.1143
			C134.3784,474.5559,137.1489,471.7859,143.0112,471.7859z M134.3784,278.0857c0-5.8628,2.7705-8.6328,8.6328-8.6328h17.5225
			c5.8623,0,8.6328,2.77,8.6328,8.6328v10.5649c0,5.8628-2.7705,8.6328-8.6328,8.6328h-17.5225c-5.8623,0-8.6328-2.77-8.6328-8.6328
			V278.0857z M134.3784,346.8215h26.2842c2.5762,0,3.543-0.9663,3.543-3.9941c0-4.3809-1.2246-7.1509-3.4141-10.501h-26.4131
			v-5.9268h26.2842c2.5762,0,3.543-0.9663,3.543-3.9302c0-4.5093-1.1602-7.1509-3.4785-10.5649h-26.3486v-5.8628h34.7881v5.8628
			h-4.7676c3.0273,3.0278,5.1543,5.6045,5.1543,11.145c0,5.1538-1.7402,7.9883-5.4121,8.8901
			c3.0273,2.9634,5.4121,6.1201,5.4121,11.5317c0,6.4424-2.7705,9.2124-8.6973,9.2124h-26.4775V346.8215z M134.3784,369.7512
			c0-5.8628,2.7705-8.6328,8.6328-8.6328h17.5225c5.8623,0,8.6328,2.77,8.6328,8.6328v10.1143c0,5.8623-2.7705,8.6328-8.6328,8.6328
			H150.354v-21.5176h-7.5361c-2.4482,0-3.4785,1.0308-3.4785,3.479v8.6973c0,2.4478,1.0303,3.4785,3.4785,3.4785h2.5771v5.8628
			h-2.3838c-5.8623,0-8.6328-2.7705-8.6328-8.6328V369.7512z M144.2993,411.0413c7.2793,0,9.4697,3.0278,10.1143,8.8257
			c0.3213,3.0923,0.7725,7.731,0.9658,12.9492h5.2832c2.5117,0,3.4785-0.9663,3.4785-3.479v-7.7949
			c0-2.5127-0.9668-3.479-3.4785-3.479h-1.2891v-5.8623h1.1602c5.8623,0,8.6328,2.77,8.6328,8.6323v9.2124
			c0,5.8628-2.7705,8.6328-8.6328,8.6328h-26.1553v-5.8623h4.9609c-3.3506-2.7061-5.2188-5.605-5.2188-11.9185
			C134.1206,413.8113,137.0845,411.0413,144.2993,411.0413z M78.3091,756.2834v19.1338h-5.6689v-19.1338H58.0806v22.999h-5.6689
			v-29.1836h45.0957v29.1836h-5.6689v-22.999H78.3091z M78.6958,793.259H52.4116v-5.8623h34.7881v5.8623h-4.832
			c3.0283,3.0273,5.1543,5.6045,5.1543,11.7891c0,7.0225-2.7695,9.792-8.6973,9.792H52.4116v-5.9268h26.2197
			c2.5771,0,3.543-0.9014,3.543-4.4453C82.1743,799.3147,81.0152,796.6731,78.6958,793.259z M78.6958,629.2537H52.4116v-5.8623
			h34.7881v5.8623h-4.832c3.0283,3.0273,5.1543,5.6045,5.1543,11.7891c0,7.0225-2.7695,9.792-8.6973,9.792H52.4116v-5.9268h26.2197
			c2.5771,0,3.543-0.9014,3.543-4.4453C82.1743,635.3093,81.0152,632.6677,78.6958,629.2537z M87.1997,461.7053v2.5771h-5.6055
			v-3.0923c0-4.123-1.4814-7.022-3.4141-10.1787H52.4116v-5.8628h34.7881v5.8628h-5.1543
			C84.8159,453.8459,87.1997,456.5515,87.1997,461.7053z M61.0445,469.0476h17.5225c5.8623,0,8.6328,2.77,8.6328,8.6328v10.1143
			c0,5.8623-2.7705,8.6328-8.6328,8.6328H68.3872v-21.5176h-7.5361c-2.4482,0-3.4785,1.0308-3.4785,3.479v8.6973
			c0,2.4478,1.0303,3.4785,3.4785,3.4785h2.5771v5.8628h-2.3838c-5.8623,0-8.6328-2.7705-8.6328-8.6328v-10.1143
			C52.4116,471.8176,55.1821,469.0476,61.0445,469.0476z M97.5064,521.4182v22.4194c0.001,6.1201-2.8984,9.0195-9.0176,9.0195
			h-6.1855c-3.543,0-5.6689-1.5459-6.8281-4.1875c-1.0957,3.1562-3.3496,4.7031-6.8936,4.7031h-7.1504
			c-6.1201,0-9.0195-2.8994-9.0195-9.0195v-22.9351H97.5064z M61.0445,561.2283h17.5225c5.8633,0,8.6328,2.7705,8.6328,8.6328
			v10.5654c0,5.8623-2.7695,8.6328-8.6328,8.6328H61.0445c-5.8623,0-8.6328-2.7705-8.6328-8.6328v-10.5654
			C52.4116,563.9988,55.1821,561.2283,61.0445,561.2283z M87.1997,597.8181v5.8623h-5.1543c2.7715,2.834,5.1543,5.54,5.1543,10.6943
			v2.5762h-5.6045v-3.0918c0-4.123-1.4814-7.0225-3.415-10.1787H52.4116v-5.8623H87.1997z M61.0445,677.4363h21.1943v-5.1543h4.9609
			v5.2188h8.375v5.7979h-8.375v8.3105h-4.9609v-8.2461H60.98c-2.4482,0-3.4785,0.9658-3.4785,3.4785v4.7676h-5.0898v-5.54
			C52.4116,680.2058,55.1821,677.4363,61.0445,677.4363z M61.0445,697.0193h17.5225c5.8633,0,8.6328,2.7705,8.6328,8.6328v10.5659
			c0,5.8623-2.7695,8.6328-8.6328,8.6328H61.0445c-5.8623,0-8.6328-2.7705-8.6328-8.6328v-10.5659
			C52.4116,699.7898,55.1821,697.0193,61.0445,697.0193z M52.4116,235.7957c0-6.1201,2.8994-9.019,9.0195-9.019h4.96v6.0557h-5.0244
			c-2.5127,0-3.4795,0.9663-3.4795,3.5435v12.4976c0,2.5771,0.9668,3.5435,3.4795,3.5435h5.4111
			c2.7695,0,3.6074-1.1597,4.252-3.8652l2.7695-12.3691c1.1602-5.2827,2.7705-9.2769,9.2129-9.2769h5.4756
			c6.1201,0,9.0186,2.8989,9.0186,9.019v12.9487c0,6.1206-2.8984,9.0195-9.0186,9.0195h-4.4453v-6.1201h4.5098
			c2.5127,0,3.4795-0.9663,3.4795-3.479v-11.7251c0-2.5122-0.9668-3.4785-3.4795-3.4785h-4.7021
			c-2.7715,0-3.6084,1.1597-4.1875,3.8008l-2.8359,12.4336c-1.1592,5.2183-2.7695,9.2769-9.2119,9.2769h-6.1836
			c-6.1201,0-9.0195-2.8989-9.0195-9.019V235.7957z M52.4116,275.3474c0-5.8628,2.7705-8.6328,8.6328-8.6328h17.5225
			c5.8623,0,8.6328,2.77,8.6328,8.6328v10.5649c0,5.8628-2.7705,8.6328-8.6328,8.6328H61.0445c-5.8623,0-8.6328-2.77-8.6328-8.6328
			V275.3474z M52.4116,344.0833h26.2842c2.5762,0,3.543-0.9663,3.543-3.9941c0-4.3809-1.2246-7.1509-3.4141-10.501H52.4116v-5.9268
			h26.2842c2.5762,0,3.543-0.9663,3.543-3.9302c0-4.5093-1.1602-7.1509-3.4785-10.5649H52.4116v-5.8628h34.7881v5.8628h-4.7676
			c3.0273,3.0278,5.1543,5.6045,5.1543,11.145c0,5.1538-1.7402,7.9883-5.4121,8.8901c3.0273,2.9634,5.4121,6.1201,5.4121,11.5317
			c0,6.4424-2.7705,9.2124-8.6973,9.2124H52.4116V344.0833z M52.4116,367.0129c0-5.8628,2.7705-8.6328,8.6328-8.6328h17.5225
			c5.8623,0,8.6328,2.77,8.6328,8.6328v10.1143c0,5.8623-2.7705,8.6328-8.6328,8.6328H68.3872v-21.5176h-7.5361
			c-2.4482,0-3.4785,1.0308-3.4785,3.479v8.6973c0,2.4478,1.0303,3.4785,3.4785,3.4785h2.5771v5.8628h-2.3838
			c-5.8623,0-8.6328-2.7705-8.6328-8.6328V367.0129z M62.3325,408.303c7.2793,0,9.4697,3.0278,10.1143,8.8257
			c0.3213,3.0923,0.7725,7.731,0.9658,12.9492h5.2832c2.5117,0,3.4785-0.9663,3.4785-3.479v-7.7949
			c0-2.5127-0.9668-3.479-3.4785-3.479h-1.2891v-5.8623h1.1602c5.8623,0,8.6328,2.77,8.6328,8.6323v9.2124
			c0,5.8628-2.7705,8.6328-8.6328,8.6328H52.4116v-5.8623h4.9609c-3.3506-2.7061-5.2188-5.605-5.2188-11.9185
			C52.1538,411.073,55.1177,408.303,62.3325,408.303z M42.104,1074.6321v-15.6553h4.9609v14.9463
			c0,2.5127,0.9658,3.4785,3.4785,3.4785h7.8594c-2.9629-3.0273-5.1533-5.6045-5.1533-12.2402
			c0-7.4082,2.7695-10.1787,8.8896-10.1787h16.4922c6.0566,0,8.8262,2.7705,8.8262,10.1787c0,6.6357-2.126,9.2129-5.1543,12.2402
			h4.8965v5.8623H50.7368C44.8745,1083.2639,42.104,1080.4944,42.104,1074.6321z M52.4116,1001.0667v-5.9268h45.0957v6.7002
			l-35.1103,21.4531h35.1103v5.9268H52.4116v-6.1846l35.8193-21.9688H52.4116z M60.8511,881.8958
			c-2.4482,0-3.4785,1.0312-3.4785,3.4795v8.6963c0,2.4482,1.0303,3.4795,3.4785,3.4795h2.5771v5.8623h-2.3838
			c-5.8623,0-8.6328-2.7705-8.6328-8.6328v-10.1143c0-5.8623,2.7705-8.6328,8.6328-8.6328h17.5225
			c5.8633,0,8.6328,2.7705,8.6328,8.6328v10.1143c0,5.8623-2.7695,8.6328-8.6328,8.6328H68.3882v-21.5176H60.8511z M61.8814,910.303
			h1.3535v5.7344h-1.4824c-3.3496,0-4.3799,1.0303-4.3799,3.4785v8.5039c0,2.5127,1.0303,3.4785,5.0244,3.4785
			c3.6719,0,4.2519-0.9014,4.6387-3.2852l1.6104-9.9209c0.9014-5.2188,2.835-7.5381,8.6973-7.5381
			c7.0869,0,9.8564,2.7705,9.8564,8.6328v8.5039c0,5.8623-2.7695,8.6328-9.084,8.6328h-1.1592v-5.7334h1.3525
			c2.8994,0,3.9297-0.9668,3.9297-3.4795v-7.2148c0-2.5127-1.0303-3.4795-4.5098-3.4795c-3.1562,0-3.7363,0.9023-4.123,3.2861
			l-1.6094,9.9209c-0.9023,5.2178-2.835,7.5371-9.2129,7.5371c-7.6016,0-10.3721-2.7695-10.3721-8.6318v-9.793
			C52.4116,913.0735,55.1821,910.303,61.8814,910.303z M61.8814,943.6711h1.3535v5.7344h-1.4824
			c-3.3496,0-4.3799,1.0303-4.3799,3.4785v8.5039c0,2.5127,1.0303,3.4785,5.0244,3.4785c3.6719,0,4.2519-0.9014,4.6387-3.2852
			l1.6104-9.9209c0.9014-5.2188,2.835-7.5381,8.6973-7.5381c7.0869,0,9.8564,2.7705,9.8564,8.6328v8.5039
			c0,5.8623-2.7695,8.6328-9.084,8.6328h-1.1592v-5.7334h1.3525c2.8994,0,3.9297-0.9668,3.9297-3.4795v-7.2148
			c0-2.5127-1.0303-3.4795-4.5098-3.4795c-3.1562,0-3.7363,0.9023-4.123,3.2861l-1.6094,9.9209
			c-0.9023,5.2178-2.835,7.5371-9.2129,7.5371c-7.6016,0-10.3721-2.7695-10.3721-8.6318v-9.793
			C52.4116,946.4417,55.1821,943.6711,61.8814,943.6711z M98.6021,1039.7805v6.5068h-6.5703v-6.5068H98.6021z M87.1997,1040.1028
			v5.8623H52.4116v-5.8623H87.1997z M95.5747,1136.7288h-8.375v8.3105h-4.9609v-8.2461H60.98c-2.4482,0-3.4785,0.9658-3.4785,3.4785
			v4.7676h-5.0898v-5.54c0-5.8633,2.7705-8.6328,8.6328-8.6328h21.1943v-5.1543h4.9609v5.2188h8.375V1136.7288z M99.44,1098.6584
			H82.3677c3.0283,3.0273,5.1543,5.6045,5.1543,11.7891c0,7.0225-2.7695,9.792-8.6973,9.792H52.4116v-5.9268h26.2197
			c2.5771,0,3.543-0.9014,3.543-4.4453c0-5.1533-1.1592-7.7949-3.4785-11.209H52.4116v-5.8623H99.44V1098.6584z M99.44,867.0803
			H52.4116v-5.8623H99.44V867.0803z M99.44,851.4924H52.4116v-5.8623h4.8965c-3.0283-3.0273-5.1543-5.6045-5.1543-12.2402
			c0-7.4082,2.7705-10.1787,8.8262-10.1787h17.6514c6.0566,0,8.8262,2.7705,8.8262,10.1787c0,6.6357-2.126,9.2129-5.1543,12.2402
			H99.44V851.4924z M124.0708,1070.6086v-15.6553h4.9609v14.9463c0,2.5127,0.9658,3.4785,3.4785,3.4785h7.8594
			c-2.9629-3.0273-5.1533-5.6045-5.1533-12.2402c0-7.4082,2.7695-10.1787,8.8896-10.1787h16.4922
			c6.0566,0,8.8262,2.7705,8.8262,10.1787c0,6.6357-2.126,9.2129-5.1543,12.2402h4.8965v5.8623h-36.4629
			C126.8413,1079.2405,124.0708,1076.4709,124.0708,1070.6086z M134.3784,1041.2981v-5.8623h34.7881v5.8623H134.3784z
			 M177.5415,1133.9934h-8.375v8.3105h-4.9609v-8.2461h-21.2588c-2.4482,0-3.4785,0.9658-3.4785,3.4785v4.7676h-5.0898v-5.54
			c0-5.8633,2.7705-8.6328,8.6328-8.6328h21.1943v-5.1543h4.9609v5.2188h8.375V1133.9934z M181.4068,1095.2786h-17.0723
			c3.0283,3.0273,5.1543,5.6045,5.1543,11.7891c0,7.0225-2.7695,9.792-8.6973,9.792h-26.4131v-5.9268h26.2197
			c2.5771,0,3.543-0.9014,3.543-4.4453c0-5.1533-1.1592-7.7949-3.4785-11.209h-26.2842v-5.8623h47.0283V1095.2786z
			 M173.9986,1041.6204v-6.5068h6.5703v6.5068H173.9986z M181.4068,1024.8069h-47.0283v-5.8623h47.0283V1024.8069z
			 M142.8179,988.0881c-2.4482,0-3.4785,1.0312-3.4785,3.4795v8.6963c0,2.4482,1.0303,3.4795,3.4785,3.4795h2.5771v5.8623h-2.3838
			c-5.8623,0-8.6328-2.7705-8.6328-8.6328v-10.1143c0-5.8623,2.7705-8.6328,8.6328-8.6328h17.5225
			c5.8633,0,8.6328,2.7705,8.6328,8.6328v10.1143c0,5.8623-2.7695,8.6328-8.6328,8.6328H150.355v-21.5176H142.8179z
			 M181.4068,972.8235h-47.0283v-5.8623h4.8965c-3.0283-3.0273-5.1543-5.6045-5.1543-12.2402
			c0-7.4082,2.7705-10.1787,8.8262-10.1787h17.6514c6.0566,0,8.8262,2.7705,8.8262,10.1787c0,6.6357-2.126,9.2129-5.1543,12.2402
			h17.1367V972.8235z M160.5982,1056.8215h-16.5566c-2.5117,0-3.4785,1.0312-3.4785,4.9609c0,5.54,1.2236,8.1816,3.4785,11.5957
			h16.5566c2.3193-3.4141,3.4785-6.0557,3.4785-11.5957C164.0767,1057.8528,163.1109,1056.8215,160.5982,1056.8215z
			 M160.4693,721.6614c2.4482,0,3.4785-0.9658,3.4785-3.4785v-9.0835c0-2.4482-1.0303-3.4795-3.4785-3.4795h-17.3936
			c-2.4482,0-3.4795,1.0312-3.4795,3.4795v9.0835c0,2.5127,1.0312,3.4785,3.4795,3.4785H160.4693z"/>
	</g>
</g>
</svg>
