<svg xmlns="http://www.w3.org/2000/svg" width="231.69" height="1369.82" viewBox="0 0 231.69 1369.82"><path d="M164.21,851.59v-8.7c0-2.44-1-3.48-3.48-3.48h-6v15.66h6C163.18,855.07,164.21,854.1,164.21,851.59ZM61.11,718.92H78.5c2.45,0,3.48-1,3.48-3.48v-9.08c0-2.45-1-3.48-3.48-3.48H61.11c-2.45,0-3.48,1-3.48,3.48v9.08C57.63,718,58.66,718.92,61.11,718.92Zm8.44-288.84L67.94,417.9c-.39-2.7-1.16-3.73-5.29-3.73s-5.41,1-5.41,4.63c0,5.22,1.42,7.86,3.74,11.28Zm90.92,155.79c2.45,0,3.48-1,3.48-3.48v-9.08c0-2.45-1-3.48-3.48-3.48H143.08c-2.45,0-3.48,1-3.48,3.48v9.08c0,2.51,1,3.48,3.48,3.48ZM140,546.38c0,2.58,1,3.55,3.55,3.55h7.66c2.58,0,3.54-1,3.54-3.55v-16H140Zm24.23,341v-8.7c0-2.44-1-3.47-3.48-3.47h-6v15.65h6C163.18,890.82,164.21,889.85,164.21,887.34Zm-85.58,173.5H62.07c-2.51,0-3.47,1-3.47,5a18,18,0,0,0,3.47,11.59H78.63c2.32-3.41,3.48-6.05,3.48-11.59C82.11,1061.88,81.14,1060.84,78.63,1060.84Zm3.61-166.77v-8.69c0-2.45-1-3.48-3.48-3.48h-6v15.65h6C81.21,897.55,82.24,896.58,82.24,894.07Zm0-517.65v-8.7c0-2.45-1-3.48-3.48-3.48h-6V379.9h6C81.21,379.9,82.24,378.93,82.24,376.42Zm82,2.74v-8.7c0-2.45-1-3.48-3.48-3.48h-6v15.66h6C163.17,382.64,164.21,381.67,164.21,379.16Zm-21.13-87.8h17.39c2.45,0,3.48-1,3.48-3.48v-9.09c0-2.44-1-3.47-3.48-3.47H143.08c-2.45,0-3.48,1-3.48,3.47v9.09C139.6,290.39,140.63,291.36,143.08,291.36Zm8.43,141.46-1.61-12.18c-.38-2.71-1.16-3.74-5.28-3.74s-5.41,1-5.41,4.64c0,5.22,1.42,7.86,3.74,11.28Zm8.7,113.05c0,2.57,1,3.54,3.48,3.54h6.64c2.57,0,3.54-1,3.54-3.54V530.34H160.21Zm-78-58.78v-8.7c0-2.45-1-3.48-3.48-3.48h-6v15.65h6C81.21,490.56,82.24,489.6,82.24,487.09Zm82,2.73v-8.69c0-2.45-1-3.48-3.48-3.48h-6V493.3h6C163.17,493.3,164.21,492.34,164.21,489.82ZM61.11,583.13H78.5c2.45,0,3.48-1,3.48-3.48v-9.08c0-2.45-1-3.48-3.48-3.48H61.11c-2.45,0-3.48,1-3.48,3.48v9.08C57.63,582.17,58.66,583.13,61.11,583.13Zm.45-35.94h7.67c2.57,0,3.54-1,3.54-3.55v-16H58v16C58,546.22,59,547.19,61.56,547.19Zm20.16-.52h6.64c2.58,0,3.54-1,3.54-3.54V527.6H78.24v15.53C78.24,545.71,79.21,546.67,81.72,546.67Zm-20.61-258H78.5c2.45,0,3.48-1,3.48-3.48v-9.08c0-2.45-1-3.48-3.48-3.48H61.11c-2.45,0-3.48,1-3.48,3.48v9.08C57.63,287.65,58.66,288.62,61.11,288.62ZM160.4,950.4H143.14c-2.71,0-3.67,1-3.67,5,0,5.54,1.16,8.18,3.48,11.59H160.6c2.32-3.41,3.48-6.05,3.48-11.59C164.08,951.44,163.11,950.4,160.4,950.4Zm.2,106.42H144c-2.51,0-3.48,1-3.48,5a18.08,18.08,0,0,0,3.48,11.6H160.6c2.32-3.42,3.48-6.06,3.48-11.6C164.08,1057.85,163.11,1056.82,160.6,1056.82Zm3.61-56.56v-8.69c0-2.45-1-3.48-3.48-3.48h-6v15.65h6C163.18,1003.74,164.21,1002.78,164.21,1000.26ZM78.44,829.07H61.17c-2.7,0-3.67,1-3.67,5,0,5.54,1.16,8.19,3.48,11.6H78.63c2.32-3.41,3.48-6.06,3.48-11.6C82.11,830.1,81.14,829.07,78.44,829.07Zm82-107.41c2.45,0,3.48-1,3.48-3.48V709.1c0-2.45-1-3.48-3.48-3.48H143.08c-2.45,0-3.48,1-3.48,3.48v9.08c0,2.52,1,3.48,3.48,3.48Zm70.82,143.9c0-1.47,0-2.94-.13-4.42V199.57l-.13-.24v-8.19c0-7-2.75-17-6.81-20.47-12.24-10.37-24.94-19.85-38.67-30L0,0,.13,1369.82l215.45-158.11,0-.12c11.4-8.61,16.2-22,16.07-41C231,1068.91,231.42,967.23,231.29,865.56Zm-96.91-627c0-6.12,2.9-9,9-9h5v6.06h-5c-2.51,0-3.48,1-3.48,3.54v12.5c0,2.58,1,3.55,3.48,3.55h5.41c2.77,0,3.61-1.16,4.26-3.87l2.77-12.37c1.16-5.28,2.77-9.28,9.21-9.28h5.47c6.12,0,9,2.9,9,9v13c0,6.12-2.9,9-9,9H166v-6.12h4.51c2.51,0,3.48-1,3.48-3.48V239.31c0-2.52-1-3.48-3.48-3.48h-4.7c-2.77,0-3.61,1.16-4.19,3.8l-2.84,12.43c-1.16,5.22-2.77,9.28-9.21,9.28H143.4c-6.12,0-9-2.9-9-9ZM143,913.37c-2.45,0-3.48,1-3.48,3.47v4.77h-5.09v-5.54c0-5.86,2.77-8.63,8.63-8.63h21.2v-5.15h5v5.21h8.37v5.8h-8.37v8.31h-5v-8.24Zm-8.57-115.7V791.3l34.79-9.6v6.18l-28.61,6.57,28.61,7.86V808l-28.61,7.86,28.61,6.57v5.86l-34.79-9.34v-6.31l27.51-7.47Zm9.47-47.47h1.35v5.73h-1.48c-3.35,0-4.38,1-4.38,3.48v8.5c0,2.52,1,3.48,5,3.48,3.68,0,4.26-.9,4.64-3.28l1.61-9.93c.9-5.21,2.84-7.53,8.7-7.53,7.09,0,9.86,2.77,9.86,8.63v8.5c0,5.87-2.77,8.64-9.09,8.64h-1.16v-5.74h1.36c2.9,0,3.93-1,3.93-3.48V760c0-2.51-1-3.48-4.51-3.48-3.16,0-3.74.9-4.13,3.29L154,769.72c-.9,5.21-2.83,7.53-9.21,7.53-7.6,0-10.37-2.77-10.37-8.63v-9.79C134.38,753,137.15,750.2,143.85,750.2ZM134.38,719V708.39c0-5.86,2.77-8.63,8.63-8.63h17.52c5.87,0,8.64,2.77,8.64,8.63V719c0,5.86-2.77,8.63-8.64,8.63H143C137.15,727.59,134.38,724.82,134.38,719ZM143,833.55h17.52c5.87,0,8.64,2.77,8.64,8.63V852.3c0,5.86-2.77,8.63-8.64,8.63H150.35V839.41h-7.53c-2.45,0-3.48,1-3.48,3.48v8.7c0,2.45,1,3.48,3.48,3.48h2.58v5.86H143c-5.86,0-8.63-2.77-8.63-8.63V842.18C134.38,836.32,137.15,833.55,143,833.55Zm0,35.75h17.52c5.87,0,8.64,2.77,8.64,8.64v10.11c0,5.86-2.77,8.63-8.64,8.63H150.35V875.17h-7.53c-2.45,0-3.48,1-3.48,3.47v8.7c0,2.45,1,3.48,3.48,3.48h2.58v5.86H143c-5.86,0-8.63-2.77-8.63-8.63V877.94C134.38,872.07,137.15,869.3,143,869.3ZM169.17,686v8.31h-5V686.1H143c-2.45,0-3.48,1-3.48,3.48v4.77h-5.09v-5.54c0-5.87,2.77-8.64,8.63-8.64h21.2V675h5v5.22h8.37V686Zm-8.51-54H134.38v-5.86h34.79V632h-4.84c3,3,5.16,5.61,5.16,11.79,0,7-2.77,9.79-8.7,9.79H134.38v-5.92H160.6c2.58,0,3.54-.91,3.54-4.45A17.28,17.28,0,0,0,160.66,632Zm8.51-31.43v5.86H164c2.77,2.83,5.16,5.54,5.16,10.69v2.58h-5.61V616.6c0-4.13-1.48-7-3.41-10.18H134.38v-5.86Zm-34.79-17.4V572.6c0-5.86,2.77-8.63,8.63-8.63h17.52c5.87,0,8.64,2.77,8.64,8.63v10.56c0,5.87-2.77,8.64-8.64,8.64H143C137.15,591.8,134.38,589,134.38,583.16Zm36.08-27.56h-6.19c-3.54,0-5.67-1.55-6.83-4.19-1.09,3.15-3.35,4.7-6.89,4.7H143.4c-6.12,0-9-2.9-9-9V524.16h45.09v22.42C179.47,552.7,176.57,555.6,170.46,555.6Zm-1.29-91.16V467h-5.61v-3.09c0-4.12-1.48-7-3.41-10.18H134.38v-5.86h34.79v5.86H164C166.78,456.58,169.17,459.29,169.17,464.44ZM143,471.79h17.52c5.87,0,8.64,2.77,8.64,8.63v10.11c0,5.87-2.77,8.64-8.64,8.64H150.35V477.65h-7.53c-2.45,0-3.48,1-3.48,3.48v8.69c0,2.45,1,3.48,3.48,3.48h2.58v5.87H143c-5.86,0-8.63-2.77-8.63-8.64V480.42C134.38,474.56,137.15,471.79,143,471.79Zm-8.63-193.7c0-5.87,2.77-8.64,8.63-8.64h17.52c5.87,0,8.64,2.77,8.64,8.64v10.56c0,5.86-2.77,8.63-8.64,8.63H143c-5.86,0-8.63-2.77-8.63-8.63Zm0,68.73h26.28c2.58,0,3.55-1,3.55-4,0-4.38-1.23-7.15-3.42-10.5H134.38V326.4h26.28c2.58,0,3.55-1,3.55-3.93,0-4.51-1.16-7.15-3.48-10.57H134.38V306h34.79v5.86H164.4c3,3,5.15,5.61,5.15,11.15,0,5.15-1.74,8-5.41,8.89,3,3,5.41,6.12,5.41,11.53,0,6.44-2.77,9.21-8.69,9.21H134.38Zm0,22.93c0-5.86,2.77-8.63,8.63-8.63h17.52c5.87,0,8.64,2.77,8.64,8.63v10.12c0,5.86-2.77,8.63-8.64,8.63H150.35V367h-7.53c-2.45,0-3.48,1-3.48,3.48v8.7c0,2.44,1,3.48,3.48,3.48h2.58v5.86H143c-5.86,0-8.63-2.77-8.63-8.63ZM144.3,411c7.28,0,9.47,3,10.11,8.83.32,3.09.78,7.73,1,12.95h5.28c2.51,0,3.48-1,3.48-3.48v-7.8c0-2.51-1-3.48-3.48-3.48h-1.29V412.2h1.16c5.87,0,8.64,2.77,8.64,8.63v9.22c0,5.86-2.77,8.63-8.64,8.63H134.38v-5.86h5c-3.35-2.71-5.22-5.61-5.22-11.92C134.12,413.81,137.08,411,144.3,411Zm-66,345.24v19.14H72.64V756.28H58.08v23H52.41V750.1h45.1v29.18H91.84v-23Zm.39,37H52.41V787.4H87.2v5.86H82.37c3,3,5.15,5.6,5.15,11.79,0,7-2.77,9.79-8.7,9.79H52.41v-5.93H78.63c2.58,0,3.54-.9,3.54-4.44A17.24,17.24,0,0,0,78.7,793.26Zm0-164H52.41v-5.86H87.2v5.86H82.37c3,3,5.15,5.61,5.15,11.79,0,7-2.77,9.79-8.7,9.79H52.41v-5.92H78.63c2.58,0,3.54-.9,3.54-4.45A17.28,17.28,0,0,0,78.7,629.25Zm8.5-167.54v2.57H81.59v-3.09c0-4.12-1.48-7-3.41-10.18H52.41v-5.86H87.2V451H82.05C84.82,453.85,87.2,456.55,87.2,461.71ZM61,469.05H78.57c5.86,0,8.63,2.77,8.63,8.63v10.11c0,5.87-2.77,8.64-8.63,8.64H68.39V474.91H60.85c-2.45,0-3.48,1-3.48,3.48v8.7c0,2.44,1,3.47,3.48,3.47h2.58v5.87H61c-5.86,0-8.63-2.77-8.63-8.64V477.68C52.41,471.82,55.18,469.05,61,469.05Zm36.47,52.37v22.42c0,6.12-2.9,9-9,9H82.3c-3.54,0-5.67-1.55-6.82-4.19-1.1,3.16-3.35,4.7-6.9,4.7H61.43c-6.12,0-9-2.9-9-9V521.42ZM61,561.23H78.57c5.86,0,8.63,2.77,8.63,8.63v10.57c0,5.86-2.77,8.63-8.63,8.63H61c-5.86,0-8.63-2.77-8.63-8.63V569.86C52.41,564,55.18,561.23,61,561.23ZM87.2,597.82v5.86H82.05c2.77,2.83,5.15,5.54,5.15,10.69V617H81.6v-3.09c0-4.12-1.49-7-3.42-10.18H52.41v-5.86ZM61,677.44h21.2v-5.16h5v5.22h8.37v5.8H87.2v8.31h-5v-8.25H61c-2.45,0-3.48,1-3.48,3.48v4.77H52.41v-5.54C52.41,680.21,55.18,677.44,61,677.44ZM61,697H78.57c5.86,0,8.63,2.77,8.63,8.63v10.57c0,5.86-2.77,8.63-8.63,8.63H61c-5.86,0-8.63-2.77-8.63-8.63V705.65C52.41,699.79,55.18,697,61,697ZM52.41,235.8c0-6.12,2.9-9,9-9h5v6.05h-5c-2.52,0-3.48,1-3.48,3.55v12.49c0,2.58,1,3.55,3.48,3.55h5.41c2.77,0,3.61-1.16,4.25-3.87l2.77-12.37c1.16-5.28,2.77-9.27,9.21-9.27h5.48c6.12,0,9,2.89,9,9v13c0,6.12-2.9,9-9,9H84v-6.12h4.51c2.51,0,3.48-1,3.48-3.48V236.57c0-2.51-1-3.48-3.48-3.48h-4.7c-2.77,0-3.61,1.16-4.19,3.8l-2.83,12.43c-1.16,5.22-2.77,9.28-9.22,9.28H61.43c-6.12,0-9-2.9-9-9Zm0,39.55c0-5.87,2.77-8.64,8.63-8.64H78.57c5.86,0,8.63,2.77,8.63,8.64v10.56c0,5.87-2.77,8.64-8.63,8.64H61c-5.86,0-8.63-2.77-8.63-8.64Zm0,68.73H78.7c2.57,0,3.54-1,3.54-4,0-4.38-1.23-7.15-3.42-10.5H52.41v-5.93H78.7c2.57,0,3.54-1,3.54-3.93,0-4.51-1.16-7.15-3.48-10.56H52.41V303.3H87.2v5.87H82.43c3,3,5.16,5.6,5.16,11.14,0,5.16-1.74,8-5.42,8.89,3,3,5.42,6.12,5.42,11.53,0,6.45-2.77,9.22-8.7,9.22H52.41Zm0,22.93c0-5.86,2.77-8.63,8.63-8.63H78.57c5.86,0,8.63,2.77,8.63,8.63v10.12c0,5.86-2.77,8.63-8.63,8.63H68.39V364.24H60.85c-2.45,0-3.48,1-3.48,3.48v8.7c0,2.45,1,3.48,3.48,3.48h2.58v5.86H61c-5.86,0-8.63-2.77-8.63-8.63Zm9.92,41.29c7.28,0,9.47,3,10.12,8.83.32,3.09.77,7.73,1,12.95H78.7c2.51,0,3.47-1,3.47-3.48v-7.8c0-2.51-1-3.48-3.47-3.48H77.41v-5.86h1.16c5.86,0,8.63,2.77,8.63,8.63v9.22c0,5.86-2.77,8.63-8.63,8.63H52.41v-5.86h5c-3.35-2.71-5.22-5.61-5.22-11.92C52.15,411.07,55.12,408.3,62.33,408.3ZM42.1,1074.63V1059h5v14.94c0,2.52,1,3.48,3.48,3.48H58.4c-3-3-5.15-5.6-5.15-12.24,0-7.41,2.77-10.18,8.89-10.18H78.63c6.06,0,8.83,2.77,8.83,10.18,0,6.64-2.13,9.21-5.16,12.24h4.9v5.86H50.74C44.87,1083.26,42.1,1080.49,42.1,1074.63Zm10.31-73.56v-5.93h45.1v6.7L62.4,1023.29H97.51v5.93H52.41V1023l35.82-22ZM60.85,881.9c-2.45,0-3.48,1-3.48,3.48v8.69c0,2.45,1,3.48,3.48,3.48h2.58v5.86H61c-5.86,0-8.63-2.77-8.63-8.63V884.67c0-5.87,2.77-8.64,8.63-8.64H78.57c5.86,0,8.63,2.77,8.63,8.64v10.11c0,5.86-2.77,8.63-8.63,8.63H68.39V881.9Zm1,28.4h1.35V916H61.75c-3.35,0-4.38,1-4.38,3.48V928c0,2.51,1,3.48,5,3.48,3.67,0,4.25-.9,4.64-3.29l1.61-9.92c.9-5.22,2.83-7.54,8.69-7.54,7.09,0,9.86,2.77,9.86,8.64v8.5c0,5.86-2.77,8.63-9.08,8.63H77v-5.73h1.35c2.9,0,3.93-1,3.93-3.48V920.1c0-2.52-1-3.48-4.51-3.48-3.16,0-3.74.9-4.12,3.28L72,929.82c-.91,5.22-2.84,7.54-9.22,7.54-7.6,0-10.37-2.77-10.37-8.63v-9.79C52.41,913.07,55.18,910.3,61.88,910.3Zm0,33.37h1.35v5.74H61.75c-3.35,0-4.38,1-4.38,3.47v8.51c0,2.51,1,3.48,5,3.48,3.67,0,4.25-.9,4.64-3.29l1.61-9.92c.9-5.22,2.83-7.54,8.69-7.54,7.09,0,9.86,2.77,9.86,8.64v8.5c0,5.86-2.77,8.63-9.08,8.63H77v-5.73h1.35c2.9,0,3.93-1,3.93-3.48v-7.22c0-2.51-1-3.48-4.51-3.48-3.16,0-3.74.91-4.12,3.29L72,963.19c-.91,5.22-2.84,7.54-9.22,7.54-7.6,0-10.37-2.77-10.37-8.63v-9.8C52.41,946.44,55.18,943.67,61.88,943.67Zm36.72,96.11v6.51H92v-6.51Zm-11.4.32V1046H52.41v-5.87Zm8.37,96.63H87.2V1145h-5v-8.25H61c-2.45,0-3.48,1-3.48,3.48V1145H52.41v-5.54c0-5.86,2.77-8.63,8.63-8.63h21.2v-5.16h5v5.22h8.37Zm3.87-38.07H82.37c3,3,5.15,5.6,5.15,11.79,0,7-2.77,9.79-8.7,9.79H52.41v-5.93H78.63c2.58,0,3.54-.9,3.54-4.44a17.24,17.24,0,0,0-3.47-11.21H52.41v-5.86h47Zm0-231.58h-47v-5.86h47Zm0-15.59h-47v-5.86h4.9c-3-3-5.16-5.6-5.16-12.24,0-7.41,2.77-10.18,8.83-10.18H78.63c6.06,0,8.83,2.77,8.83,10.18,0,6.64-2.13,9.21-5.16,12.24H99.44Zm24.63,219.12V1055h5v15c0,2.51,1,3.48,3.48,3.48h7.86c-3-3-5.15-5.61-5.15-12.24,0-7.41,2.77-10.18,8.89-10.18H160.6c6.05,0,8.82,2.77,8.82,10.18,0,6.63-2.12,9.21-5.15,12.24h4.9v5.86H132.7C126.84,1079.24,124.07,1076.47,124.07,1070.61Zm10.31-29.31v-5.86h34.79v5.86ZM177.54,1134h-8.37v8.31h-5v-8.24H143c-2.45,0-3.48,1-3.48,3.48v4.76h-5.09v-5.54c0-5.86,2.77-8.63,8.63-8.63h21.2V1123h5v5.22h8.37Zm3.87-38.71H164.33c3,3,5.16,5.6,5.16,11.79,0,7-2.77,9.79-8.7,9.79H134.38v-5.93H160.6c2.58,0,3.54-.9,3.54-4.44a17.24,17.24,0,0,0-3.48-11.21H134.38v-5.86h47ZM174,1041.62v-6.51h6.57v6.51Zm7.41-16.81h-47v-5.87h47Zm-38.59-36.72c-2.45,0-3.48,1-3.48,3.48v8.69c0,2.45,1,3.48,3.48,3.48h2.58v5.87H143c-5.86,0-8.63-2.77-8.63-8.64V990.86c0-5.86,2.77-8.63,8.63-8.63h17.52c5.87,0,8.64,2.77,8.64,8.63V1001c0,5.87-2.77,8.64-8.64,8.64H150.35V988.09Zm38.59-15.27h-47V967h4.89c-3-3-5.15-5.6-5.15-12.24,0-7.41,2.77-10.18,8.83-10.18H160.6c6.05,0,8.82,2.77,8.82,10.18,0,6.64-2.12,9.21-5.15,12.24h17.14Z" transform="translate(0 0)"/></svg>